<?xml version="1.0" encoding="UTF-8"?><svg id="Layer_1" xmlns="http://www.w3.org/2000/svg" viewBox="0 0 240 240"><path d="m84.04,212.99c-13.73,0-24.91-11.17-24.91-24.91s11.17-24.91,24.91-24.91,24.92,11.18,24.92,24.91-11.18,24.91-24.92,24.91Z"/><path d="m195.88,212.99c-13.74,0-24.91-11.17-24.91-24.91s11.18-24.91,24.91-24.91,24.91,11.18,24.91,24.91-11.17,24.91-24.91,24.91Z"/><path d="m195.88,191.92h-106.29c-2.97,0-5.81-1.44-7.57-3.84-1.77-2.43-2.28-5.56-1.36-8.4l14.27-35.07c.8-1.96,3.04-2.91,5.01-2.11,1.96.8,2.91,3.04,2.11,5.01l-14.17,34.8c-.07.24.03.81.35,1.25.32.44.83.69,1.38.69h106.29c2.12,0,3.84,1.72,3.84,3.84s-1.72,3.84-3.84,3.84Z"/><path d="m228.66,52.28c-1.76-2.4-4.59-3.83-7.57-3.83l-160.08.05-7.52-17.23c-.61-1.4-1.99-2.3-3.52-2.3H14.4c-2.12,0-3.84,1.72-3.84,3.84s1.72,3.84,3.84,3.84h33.06l46.95,107.57c1.48,3.45,4.86,5.67,8.62,5.67h91.98c4.11,0,7.71-2.63,8.95-6.56l26.09-82.67c.9-2.84.38-5.98-1.38-8.38Zm-41.5,75.37h-78.53c-2.12,0-3.84-1.72-3.84-3.84s1.72-3.84,3.84-3.84h78.53c2.12,0,3.84,1.72,3.84,3.84s-1.72,3.84-3.84,3.84Zm6.7-24.25h-91.94c-2.12,0-3.84-1.72-3.84-3.84s1.72-3.84,3.84-3.84h91.94c2.12,0,3.84,1.72,3.84,3.84s-1.72,3.84-3.84,3.84Zm5.5-24.25h-102.94c-2.12,0-3.84-1.72-3.84-3.84s1.72-3.84,3.84-3.84h102.94c2.12,0,3.84,1.72,3.84,3.84s-1.72,3.84-3.84,3.84Z"/><path d="m21.64,33.07c0,3.34-2.71,6.06-6.06,6.06s-6.06-2.71-6.06-6.06,2.71-6.06,6.06-6.06,6.06,2.71,6.06,6.06Z"/></svg>